User Type,Username,Date,Text
,ManLemon,2011-01-20T22:45Z,"Heh, this version has the most DLs and no comments on quality or anything? Anyway, thanks for the upload, Steve!"
,AKD73,2011-02-26T15:41Z,"Had a quick look after download and it seems fine.
Subs/Video/Audio all good."
,pancholi,2011-03-03T05:44Z,thanx......to all u large hearted guys out there
,sev_on_tpb,2011-04-19T11:32Z,What are the dimensions and length of time for this?  Thx.
,steve8852,2011-04-20T02:11Z,"Format                           : AVI
Format/Info                      : Audio Video Interleave
File size                        : 1.37 GiB
Duration                         : 2h 20mn
Overall bit rate                 : 1 389 Kbps
Writing library                  : VirtualDub build 30091/release

Video
ID                               : 0
Format                           : MPEG-4 Visual
Format profile                   : Advanced Simple@L5
Format settings, BVOP            : Yes
Format settings, QPel            : No
Format settings, GMC             : No warppoints
Format settings, Matrix          : Default (H.263)
Muxing mode                      : Packed bitstream
Codec ID                         : XVID
Codec ID/Hint                    : XviD
Duration                         : 2h 20mn
Bit rate                         : 931 Kbps
Width                            : 640 pixels
Height                           : 368 pixels
Display aspect ratio             : 16:9
Frame rate                       : 25.000 fps
Color space                      : YUV
Chroma subsampling               : 4:2:0
Bit depth                        : 8 bits
Scan type                        : Progressive
Bits/(Pixel*Frame)               : 0.158
Stream size                      : 939 MiB (67%)
Writing library                  : XviD 1.2.1 (UTC 2008-12-04)

Audio
ID                               : 1
Format                           : AC-3
Format/Info                      : Audio Coding 3
Mode extension                   : CM (complete main)
Codec ID                         : 2000
Duration                         : 2h 20mn
Bit rate mode                    : Constant
Bit rate                         : 448 Kbps
Channel(s)                       : 6 channels
Channel positions                : Front: L C R, Side: L R, LFE
Sampling rate                    : 48.0 KHz
Stream size                      : 452 MiB (32%)
Alignment                        : Split accross interleaves
Interleave, duration             : 40 ms (1.00 video frame)
Interleave, preload duration     : 500 ms"
,mariant1517,2011-05-17T18:59Z,thanks
,roncoyroncoy,2011-08-03T13:24Z,"Qualiy seems okay, obviously not the quality of a Blu-ray rip but definitely watchable.
V 8
A 10

Thanks Steve8852 you've done well."
,clumsyshadow22,2011-09-05T09:14Z,Thanks for the upload :)
,jackpentium,2011-10-04T21:37Z,just watched girl with dragon tattoo. danke steve8852!
,magi123,2011-10-12T09:19Z,"good job for a dvdrip, thank you."
,bragazar1710,2012-01-08T07:16Z,thanks.
[M],Eliteghost,2012-01-16T00:46Z,thank you
